<?xml version="1.0" encoding="UTF-8"?>
<svg id="Ebene_1" xmlns="http://www.w3.org/2000/svg" xmlns:xlink="http://www.w3.org/1999/xlink" version="1.1" viewBox="0 0 800 800">
  <!-- Generator: Adobe Illustrator 29.2.0, SVG Export Plug-In . SVG Version: 2.1.0 Build 108)  -->
  <defs>
    <style>
      .st0 {
        fill-rule: evenodd;
		fill: #ffffff;
      }

      .st1 {
        fill: #ffffff;
      }
    </style>
  </defs>
  <path class="st1" d="M760,0h-120c-22,0-40,18-40,40v160c0,22,18,40,40,40h120c22,0,40-18,40-40V40c0-22-18-40-40-40ZM780,200c0,11-9,20-20,20h-120c-11,0-20-9-20-20V40c0-11,9-20,20-20h30v20h20v20h20v-20h20v-20h30c11,0,20,9,20,20v160ZM640,180h120v20h-120v-20Z"/>
  <path class="st0" d="M247.6,419c0-84.2,68.2-152.4,152.4-152.4s152.4,68.2,152.4,152.4v38.1h38.1c73.6,0,133.3,59.7,133.3,133.3s-59.7,133.3-133.3,133.3h-3.8c-21,0-38.1,17.1-38.1,38.1s17.1,38.1,38.1,38.1h3.8c115.7,0,209.5-93.8,209.5-209.5s-75.3-189.7-174.1-206.5c-16.9-109.6-111.6-193.5-225.9-193.5s-209,83.9-225.9,193.5C75.3,400.8,0,486.8,0,590.5s93.8,209.5,209.5,209.5h3.8c21,0,38.1-17.1,38.1-38.1s-17.1-38.1-38.1-38.1h-3.8c-73.6,0-133.3-59.7-133.3-133.3s59.7-133.3,133.3-133.3h38.1v-38.1ZM438.1,457.1c0-21-17.1-38.1-38.1-38.1s-38.1,17.1-38.1,38.1v212.8l-49.3-49.3c-14.9-14.9-39-14.9-53.9,0-14.9,14.9-14.9,39,0,53.9l114.3,114.3c14.9,14.9,39,14.9,53.9,0l114.3-114.3c14.9-14.9,14.9-39,0-53.9-14.9-14.9-39-14.9-53.9,0l-49.3,49.3v-212.8Z"/>
</svg>