<?xml version="1.0" encoding="UTF-8" standalone="no"?>
<!DOCTYPE svg PUBLIC "-//W3C//DTD SVG 1.1//EN" "http://www.w3.org/Graphics/SVG/1.1/DTD/svg11.dtd">
<svg width="100%" height="100%" viewBox="0 0 14 14" version="1.1" xmlns="http://www.w3.org/2000/svg" xmlns:xlink="http://www.w3.org/1999/xlink" xml:space="preserve" xmlns:serif="http://www.serif.com/" style="fill-rule:evenodd;clip-rule:evenodd;">
    <rect x="0" y="0" width="14" height="14" style="fill:none;"/>
    <g transform="matrix(0.8,0,0,0.8,2,-5)">
        <circle cx="7.5" cy="10.5" r="2" style="fill:none;stroke:rgb(247,247,247);stroke-width:1.25px;"/>
    </g>
    <g transform="matrix(0.8,0,0,0.8,-2.9,-5)">
        <circle cx="7.5" cy="10.5" r="2" style="fill:none;stroke:rgb(247,247,247);stroke-width:1.25px;"/>
    </g>
    <g transform="matrix(0.616566,0,0,0.504197,-0.65798,5.20169)">
        <path d="M16.475,3.567L16.475,13.483C16.475,14.031 16.112,14.475 15.664,14.475L4.311,14.475C3.863,14.475 3.5,14.031 3.5,13.483L3.5,3.567C3.5,3.019 3.863,2.575 4.311,2.575L15.664,2.575C16.112,2.575 16.475,3.019 16.475,3.567Z" style="fill:none;stroke:rgb(247,247,247);stroke-width:1.76px;"/>
    </g>
    <g transform="matrix(0.635427,0,0,0.618494,-1.47125,3.99738)">
        <path d="M21.987,4.547L21.987,13.246C21.987,13.716 21.398,13.927 21.1,13.563L17.537,9.213C17.386,9.029 17.386,8.764 17.537,8.579L21.1,4.23C21.398,3.867 21.987,4.078 21.987,4.547Z" style="fill:none;fill-rule:nonzero;stroke:rgb(247,247,247);stroke-width:1.62px;"/>
    </g>
</svg>
