<?xml version="1.0" encoding="UTF-8"?>
<svg id="uuid-52a12211-868e-4e33-b1a5-60e738886c90" data-name="Ebene 1" xmlns="http://www.w3.org/2000/svg" viewBox="0 0 12 12">
  <path d="M11.132,1.7958h.005-.005M11.12,1.8104l.0055,8.387-3.4553-4.1954,3.4498-4.1916M11.1151.9221c-.2413,0-.4863.0993-.6691.3215l-3.4553,4.1993c-.2663.3237-.2663.7906,0,1.1143l3.4553,4.1993c.1828.2222.4278.3215.6691.3215.4488,0,.8849-.3435.8849-.8786V1.8007c0-.5352-.4361-.8787-.8849-.8786h0Z" fill="#f7f7f7"/>
  <path d="M6.4243.88v10.24H.88V.88h5.5443M6.4243,0H.88c-.486,0-.88.394-.88.88v10.24c0,.486.394.88.88.88h5.5443c.486,0,.88-.394.88-.88V.88c0-.486-.394-.88-.88-.88h0Z" fill="#f7f7f7"/>
</svg>