<?xml version="1.0" encoding="UTF-8"?>
<svg id="uuid-f11255dc-098e-4a08-9d1d-c101f46e6745" data-name="Ebene 1" xmlns="http://www.w3.org/2000/svg" viewBox="0 0 14 14">
  <rect width="14" height="14" fill="none"/>
  <path d="M12.132,2.7958h.005-.005M12.12,2.8104l.0055,8.387-3.4553-4.1954,3.4498-4.1916M12.1151,1.9221c-.2413,0-.4863.0993-.6691.3215l-3.4553,4.1993c-.2663.3237-.2663.7906,0,1.1143l3.4553,4.1993c.1828.2222.4278.3215.6691.3215.4488,0,.8849-.3435.8849-.8786V2.8007c0-.5352-.4361-.8787-.8849-.8786h0Z" fill="#f7f7f7"/>
  <path d="M7.4243,1.88v10.24H1.88V1.88h5.5443M7.4243,1H1.88c-.486,0-.88.394-.88.88v10.24c0,.486.394.88.88.88h5.5443c.486,0,.88-.394.88-.88V1.88c0-.486-.394-.88-.88-.88h0Z" fill="#f7f7f7"/>
</svg>