<?xml version="1.0" encoding="UTF-8"?>
<svg id="uuid-790fe307-7c27-462c-a31f-00ded3123282" data-name="Ebene_1" xmlns="http://www.w3.org/2000/svg" viewBox="0 0 20 19.22">
  <path d="M3.0897,6.5576c-1.8603,1.2394-3.0897,3.3547-3.0897,5.7529,0,3.8099,3.1,6.9095,6.9094,6.9095,1.1109,0,2.1598-.2646,3.0904-.7321l-.0019-.001-.012-.0062c.934.4719,1.9882.7393,3.1042.7393,3.8101,0,6.9099-3.0995,6.9099-6.9095,0-2.4003-1.2314-4.5178-3.0943-5.7566-.1893-3.646-3.2147-6.5539-6.9069-6.5539C6.3123,0,3.2907,2.8993,3.0928,6.5372c0,0-.0031.0204-.0031.0204ZM4.6675,5.7612c.5312-2.4552,2.7195-4.3007,5.3315-4.3007,3.0084,0,5.4557,2.4475,5.4557,5.4558,0,1.5878-.6824,3.0191-1.7684,4.0171l-.7612-.4363-1.4632.8386,2.3499,1.3474c1.5005-.9958,2.5918-2.5603,2.9635-4.384,1.0846.997,1.7651,2.4261,1.7651,4.0116,0,3.0053-2.4452,5.4502-5.4506,5.4502-2.6095,0-4.7996-1.8431-5.3309-4.2956l.7775-.4485v-1.6771l-2.3503,1.3507c.1048,1.9189.9986,3.6314,2.3585,4.8209l-.0006-.0016c-.5167.1632-1.0647.251-1.6348.251-3.0054,0-5.4501-2.4449-5.4501-5.4502s2.4446-5.4507,5.4501-5.4507c.5705,0,1.1202.0884,1.6368.2513l.0034.8848,1.4578.8331v-2.6962c-.9192-.4673-1.9836-.7321-3.0941-.7321-.7864,0-1.544.1326-2.2489.376,0,0,.0033-.0155.0033-.0155Z" fill="#6d6d6c"/>
</svg>