<?xml version="1.0" encoding="UTF-8"?>
<svg id="uuid-2c60282f-e1ab-4854-9c76-bcdac97f43ab" data-name="Ebene_1" xmlns="http://www.w3.org/2000/svg" viewBox="0 0 24 24">
  <rect width="24" height="24" fill="none"/>
  <path d="M5.4352,9.1002c-1.7673,1.1774-2.9352,3.187-2.9352,5.4653,0,3.6194,2.945,6.564,6.5639,6.564,1.0554,0,2.0518-.2514,2.9359-.6955l-.0018-.0009-.0114-.0059c.8873.4483,1.8888.7023,2.949.7023,3.6196,0,6.5644-2.9445,6.5644-6.564,0-2.2803-1.1698-4.2919-2.9396-5.4688-.1798-3.4637-3.054-6.2262-6.5616-6.2262-3.5022,0-6.3727,2.7543-6.5607,6.2103l-.0029.0194ZM6.9341,8.3436c.5046-2.3324,2.5835-4.0857,5.0649-4.0857,2.858,0,5.1829,2.3251,5.1829,5.183,0,1.5084-.6483,2.8681-1.68,3.8162l-.7231-.4145-1.39.7967,2.2324,1.28c1.4255-.946,2.4622-2.4323,2.8153-4.1648,1.0304.9471,1.6768,2.3048,1.6768,3.811,0,2.855-2.3229,5.1777-5.1781,5.1777-2.479,0-4.5596-1.7509-5.0644-4.0808l.7386-.4261v-1.5932l-2.2328,1.2832c.0996,1.823.9487,3.4498,2.2406,4.5799l-.0006-.0015c-.4909.155-1.0115.2384-1.5531.2384-2.8551,0-5.1776-2.3227-5.1776-5.1777s2.3224-5.1782,5.1776-5.1782c.542,0,1.0642.084,1.555.2387l.0032.8406,1.3849.7914v-2.5614c-.8732-.4439-1.8844-.6955-2.9394-.6955-.7471,0-1.4668.126-2.1365.3572,0,0,.0031-.0147.0031-.0147Z" fill="#6e6e6d"/>
</svg>