<?xml version="1.0" encoding="UTF-8"?>
<svg id="uuid-cc098dc1-8fd1-41c1-aa85-09098b76a2a6" data-name="Ebene_1" xmlns="http://www.w3.org/2000/svg" viewBox="0 0 824 824">
  <rect width="824" height="824" fill="none"/>
  <g id="uuid-b58df7c9-7f7f-4014-b3c8-bff30388e788" data-name="bambulab">
    <path d="M191.551,304.5328c0-57.8044.0861-115.609-.1445-173.4125-.0211-5.2823,1.5371-6.1085,6.3401-6.0964,64.304.1612,128.6086.1753,192.9124-.0238,4.9834-.0154,5.8285,1.3788,5.8207,6.0255-.149,89.4549-.1254,178.9101-.0513,268.3652.0027,3.3352-.5713,5.2776-4.1237,6.6675-65.1387,25.4866-130.2108,51.1429-195.3009,76.7535-5.4321,2.1373-5.4516,2.1048-5.4518-3.8665-.0017-58.1375-.0011-116.2751-.0011-174.4126h0Z" fill="#26a643"/>
    <path d="M427.9085,518.9144c0-57.8088-.0009-115.6175.0012-173.4263.0002-6.3456.0172-6.3691,5.7162-4.1257,64.9374,25.5626,129.8616,51.1588,194.8373,76.6237,3.1822,1.2471,4.1259,2.7944,4.1221,6.1525-.1001,89.9617-.1061,179.9235.0084,269.885.0051,3.9536-1.0539,4.9504-4.9709,4.9429-64.8087-.1231-129.6181-.1456-194.4266.0333-4.6803.0129-5.3809-1.5066-5.372-5.6598.1243-58.1417.0843-116.2837.0843-174.4257h0Z" fill="#24a543"/>
    <path d="M396.3699,568.9077c0,41.6403-.0642,83.2808.0987,124.9203.0164,4.1889-1.1213,5.1571-5.2304,5.1484-64.7952-.1375-129.5909-.1503-194.386.0188-4.5634.0119-5.4094-1.3133-5.3984-5.5756.1448-56.4638.151-112.9283-.0163-169.392-.0122-4.1016,1.3763-5.6505,4.999-7.0712,64.969-25.4771,129.8776-51.1085,194.8007-76.7027,3.4131-1.3455,5.1237-.1011,5.1317,3.7333.0018,41.6403.0009,83.2805.0009,124.9207Z" fill="#26a643"/>
    <path d="M632.5053,255.0889c0,41.8133-.045,83.6267.0713,125.4397.0113,4.0829-.5545,5.1358-4.8158,3.4484-65.2017-25.8176-130.4548-51.5054-195.7339-77.1268-3.1053-1.2188-4.2099-2.7489-4.2028-6.1713.1191-56.9725.1209-113.9453.0017-170.9178-.0077-3.6776.8297-4.7275,4.6413-4.7201,65.1384.1273,130.2775.1411,195.4158-.0213,4.3075-.0107,4.6916,1.6032,4.6835,5.129-.0951,41.6466-.0612,83.2935-.0612,124.9402h.0001Z" fill="#24a543"/>
  </g>
</svg>