<?xml version="1.0" encoding="UTF-8"?>
<svg id="uuid-66b0716a-77a0-4414-a04b-0db2b42a5295" data-name="Ebene_1" xmlns="http://www.w3.org/2000/svg" viewBox="0 0 824 824">
  <rect width="824" height="824" fill="none"/>
  <g id="uuid-9c5b1642-807c-40f4-9879-420e6b7b9b08" data-name="duet">
    <path d="M418.4029,699c-128.317-.0152-231.2079-91.5407-243.8882-211.7887-7.9151-75.0468,14.765-140.3411,67.6769-194.2423,54.6685-55.6932,110.3718-110.3718,165.4871-165.6284,3.2761-3.2836,4.8283-2.9883,7.9201.1111,54.8477,54.9588,110.5258,109.1048,164.581,164.8283,64.8551,66.8566,86.2278,146.8756,59.7744,235.963-26.4584,89.1001-88.3656,143.7282-178.922,165.5552-16.1961,3.9045-32.8137,5.164-42.6293,5.1993v.0026ZM553.8451,318.5365c-.3559-1.8778-1.7996-2.7309-2.8899-3.8187-74.6026-74.5168-204.0604-74.7414-279.6751-.5881-2.5391,2.4911-3.112,3.7859-.2625,6.5042,8.8313,8.4274,17.4833,17.0517,25.9158,25.8754,2.8268,2.9581,4.3639,2.4356,7.1226-.0555,63.1237-57.0107,151.5852-56.4681,215.0118,1.2973,2.1883,1.9914,3.4048,2.5694,5.7394.1691,8.9272-9.1821,18.079-18.1496,27.1323-27.2081.6991-.6991,1.3074-1.4891,1.9031-2.1731l.0026-.0025ZM410.5863,334.1975c-32.4553.3912-61.0137,11.4738-85.4555,33.3311-2.9429,2.6325-3.112,4.1241-.1969,6.9131,8.6672,8.2886,17.1199,16.8044,25.4615,25.4211,2.5189,2.6022,3.9752,3.0994,7.1226.4316,32.5134-27.5614,75.3421-27.1853,107.7065.9465,3.0287,2.6325,4.326,1.8576,6.5976-.4644,8.3871-8.5713,16.7943-17.1375,25.5044-25.3782,3.165-2.9934,2.8773-4.6138-.1868-7.3775-24.51-22.092-53.1844-33.4094-86.5534-33.8233ZM410.9346,409.7011c-12.2335.1111-23.0688,4.0509-32.579,11.7439-2.3144,1.8702-3.5259,3.1802-.6537,5.9514,10.4819,10.1159,20.7417,20.4641,30.9611,30.8451,2.0999,2.1327,3.4023,2.5416,5.7192.1691,9.9014-10.1336,19.8962-20.1814,30.0954-30.0172,2.9505-2.8445,2.0772-4.326-.53-6.4916-9.5884-7.963-20.5474-12.0594-33.0131-12.2032v.0025Z" fill="#294395"/>
    <path d="M553.8451,318.5365c-.5982.6865-1.2064,1.4765-1.9031,2.1731-9.0559,9.0584-18.2077,18.0235-27.1323,27.208-2.3346,2.4003-3.5512,1.8223-5.7394-.1691-63.4291-57.7629-151.8881-58.308-215.0118-1.2973-2.7587,2.4911-4.2957,3.0111-7.1226.0555-8.4325-8.8237-17.0871-17.448-25.9158-25.8754-2.8495-2.7183-2.2766-4.0131.2625-6.5042,75.6121-74.1533,205.07-73.9287,279.6751.5881,1.0903,1.0878,2.534,1.9409,2.8899,3.8187l-.0025.0025Z" fill="#fcfdff"/>
    <path d="M410.5863,334.1975c33.369.4139,62.0435,11.7287,86.5534,33.8233,3.0641,2.7612,3.3518,4.3816.1868,7.3775-8.7101,8.2407-17.1173,16.8044-25.5044,25.3782-2.2715,2.322-3.5689,3.0969-6.5976.4644-32.3645-28.1318-75.1932-28.5079-107.7065-.9465-3.1499,2.6703-4.6037,2.1731-7.1226-.4316-8.3416-8.6167-16.7943-17.1325-25.4615-25.4211-2.9151-2.789-2.7486-4.2806.1969-6.9131,24.4418-21.8573,53.0002-32.9399,85.4555-33.3311Z" fill="#fcfcfe"/>
    <path d="M410.9371,409.7062c12.4632.1388,23.4222,4.2352,33.0081,12.1982,2.6072,2.1655,3.4805,3.6471.53,6.4916-10.1992,9.8358-20.194,19.8836-30.0954,30.0172-2.317,2.3725-3.6219,1.9636-5.7192-.1691-10.2194-10.3835-20.4792-20.7316-30.9611-30.8451-2.8722-2.7713-1.6607-4.0812.6537-5.9514,9.5127-7.6904,20.3455-11.6328,32.5815-11.7388l.0025-.0025Z" fill="#fcfcfe"/>
  </g>
</svg>