<?xml version="1.0" encoding="UTF-8"?>
<svg id="uuid-62e1f121-f631-4b4b-bf1e-857a97688d51" data-name="Ebene_1" xmlns="http://www.w3.org/2000/svg" viewBox="0 0 824 824">
  <rect width="824" height="824" fill="none"/>
  <g id="uuid-61b02bd8-76df-4285-9954-d7b8615dabf0" data-name="klipper">
    <path id="uuid-9ab08982-e971-4000-bbbb-366552770529" data-name="path2" d="M125,175.43v114.8l213.2,209.1,94.3-4.1h65.6l200.9-205v-114.8h-8.2l-274.7,278.8L133.2,175.43h-8.2Z" fill="#3e4c5b" fill-rule="evenodd"/>
    <path id="uuid-8095f7dc-3de7-4e1a-bbe2-6361c2d01dfc" data-name="path8" d="M215.2,490.31l-47.56,46.74.82,20.5v15.58l46.74,46.74h22.14v-.82l-62.32-64.37,62.32-63.55v-.82h-22.14Z" fill="#3e4c5b" fill-rule="evenodd"/>
    <g id="uuid-236af9e0-9bc1-4f9f-b657-f76fd6542291" data-name="g17">
      <path id="uuid-5928d8b7-bc4c-4cb5-a9fc-501b55539d98" data-name="path15" d="M168.4937,528.8247h.0008l-.0345,22.1653h9.02l59.86-60.68v11.7268l-51.66,52.6432,51.66,53.71v11.48l-59.86-61.5h-10.66c-1.64,0-3.28-1.64-3.28-3.28h-1.64v-27.06h1.64c0-.82.82-1.64,2.46-1.64s2.46.82,2.46,1.64l.0337.7946Z" fill="#b13136" fill-rule="evenodd"/>
    </g>
    <g id="uuid-41ef2990-094a-4af7-be6f-9675d94c77d7" data-name="path839">
      <rect id="uuid-c6b5f19e-79cd-46c2-a286-3c2526009349" data-name="rect12" x="138.12" y="490.31" width="25.42" height="129.56" fill="#3e4c5b"/>
    </g>
    <rect id="uuid-90382391-0d68-4a7a-9c7b-8edd2af1740b" data-name="rect23" x="302.94" y="532.13" width="19.68" height="87.74" fill="#3e4c5b"/>
    <path id="uuid-a5f81464-20cb-4b4b-9ff9-b0a51c5f5430" data-name="path25" d="M405.4309,575.1468c0-8.93-2.0116-15.8753-6.0369-20.8368-4.0243-4.9615-10.5021-7.4412-19.4334-7.4412-1.8748,0-3.8314.0827-5.8716.248-2.0402.1653-4.0518.5235-6.0369,1.0745v49.4454c1.7646,1.2123,4.1079,2.343,7.0289,3.39,2.922,1.047,6.0369,1.5705,9.3447,1.5705,7.278,0,12.5984-2.4798,15.9613-7.4412,3.3629-4.9615,5.0439-11.6312,5.0439-20.0092h0ZM425.94,574.8162c0,6.6147-.8543,12.6782-2.5638,18.1897-1.7095,5.5125-4.1621,10.2536-7.3596,14.2222-3.1976,3.9686-7.1953,7.0555-11.9911,9.2607-4.7968,2.2052-10.2275,3.3073-16.291,3.3073-4.0804,0-7.8291-.4959-11.2471-1.4879-3.418-.9929-6.2298-2.095-8.4353-3.3083v33.57h-20.0121v-114.2692c4.0794-1.1031,9.0967-2.1501,15.0509-3.142,5.9542-.9929,12.2391-1.4889,18.8547-1.4889,6.836,0,12.9556,1.047,18.3587,3.142,5.4021,2.095,10.0061,5.0992,13.8099,9.0127,3.8038,3.9135,6.7258,8.6545,8.766,14.2222,2.0392,5.5667,3.0598,11.8231,3.0598,18.7693h0Z" fill="#3e4c5b"/>
    <path id="uuid-2b89b62f-5756-48c6-897e-17de55695831" data-name="path27" d="M504.6511,575.1468c0-8.93-2.0126-15.8753-6.0368-20.8368-4.0242-4.9615-10.5019-7.4412-19.4332-7.4412-1.8748,0-3.8323.0827-5.8715.248-2.0402.1653-4.0518.5235-6.0368,1.0745v49.4454c1.7636,1.2123,4.1069,2.343,7.0288,3.39,2.922,1.047,6.0368,1.5705,9.3446,1.5705,7.2769,0,12.5972-2.4798,15.9601-7.4412,3.3629-4.9615,5.0448-11.6312,5.0448-20.0092ZM525.16,574.8162c0,6.6147-.8552,12.6782-2.5638,18.1897-1.7095,5.5125-4.163,10.2536-7.3605,14.2222-3.1975,3.9686-7.1942,7.0555-11.991,9.2607-4.7958,2.2052-10.2264,3.3073-16.2907,3.3073-4.0793,0-7.828-.4959-11.246-1.4879-3.418-.9929-6.2297-2.095-8.4352-3.3083v33.57h-20.0128v-114.2692c4.0803-1.1031,9.0966-2.1501,15.0507-3.142,5.9541-.9929,12.239-1.4889,18.8545-1.4889,6.8369,0,12.9564,1.047,18.3585,3.142,5.403,2.095,10.0059,5.0992,13.8107,9.0127,3.8038,3.9135,6.7257,8.6545,8.7659,14.2222,2.0392,5.5667,3.0597,11.8231,3.0597,18.7693h0Z" fill="#3e4c5b"/>
    <path id="uuid-836fedc5-36d1-4cda-8696-ec820586e63b" data-name="path29" d="M540.74,574.7749c0-7.627,1.1274-14.3138,3.3833-20.0615,2.2548-5.7476,5.2532-10.5275,8.9949-14.3405,3.7407-3.814,8.0315-6.6878,12.8732-8.6214,4.8407-1.9346,9.7924-2.9015,14.854-2.9015,11.8822,0,21.1521,3.7025,27.8087,11.1076,6.6575,7.406,9.9858,18.4583,9.9858,33.1589,0,1.1049-.0275,2.349-.0825,3.7301-.055,1.3821-.1375,2.6252-.2475,3.7311h-56.9403c.5499,6.9631,2.9983,12.3506,7.345,16.1646,4.3457,3.813,10.6448,5.72,18.8973,5.72,4.8407,0,9.2699-.443,13.2857-1.3269,4.0158-.884,7.1791-1.8231,9.4899-2.8186l2.6408,16.4132c-1.0999.5534-2.6133,1.1336-4.5392,1.7412-1.9249.6077-4.1257,1.1602-6.6016,1.6584-2.4749.4972-5.1432.9116-8.004,1.2431-2.8608.3315-5.7766.4972-8.7474.4972-7.5925,0-14.1941-1.1326-19.8047-3.3987-5.6116-2.2661-10.2333-5.4161-13.8641-9.4502-3.6308-4.034-6.3266-8.7872-8.0875-14.2586-1.7599-5.4704-2.6399-11.4666-2.6399-17.9877ZM598.6693,565.8219c0-2.7633-.385-5.3885-1.1549-7.8756-.77-2.4871-1.8984-4.6417-3.3833-6.4658-1.4859-1.8232-3.3008-3.2605-5.4467-4.3102-2.1458-1.0507-4.7032-1.5755-7.674-1.5755-3.0808,0-5.7766.5801-8.0875,1.7413-2.3109,1.1602-4.2632,2.6804-5.8591,4.5588-1.5949,1.8794-2.8333,4.035-3.7133,6.4658-.88,2.4318-1.4859,4.9189-1.8159,7.4613h37.1346Z" fill="#3e4c5b"/>
    <path id="uuid-28a3c63b-e753-4a95-b102-ad4fe264306b" data-name="path31" d="M688.9853,551.2108c-1.6447-.5526-3.9207-1.1329-6.8273-1.7408-2.9065-.6079-6.279-.9119-10.1175-.9119-2.1938,0-4.5248.221-6.9917.6632-2.468.4421-4.1958.8289-5.1826,1.1605v69.4881h-19.9062v-82.5896c3.8385-1.4379,8.6364-2.7918,14.3946-4.0629,5.7583-1.272,12.147-1.9076,19.166-1.9076,1.3167,0,2.8517.0829,4.607.2487,1.7543.1658,3.5096.3869,5.2648.6631,1.7543.2763,3.4547.6089,5.0994.9957,1.6457.3869,2.9613.7461,3.9482,1.0777l-3.4547,16.9156Z" fill="#3e4c5b"/>
    <path id="uuid-606827ac-e2e7-4bf6-a5b2-f220ed8db4a3" data-name="path35" d="M312.78,495.23h82.82v-53.3L125,175.43h49.2l241.9,237.8,233.7-237.8h49.2l-262.4,266.5v69.6982c0,4.1018-4.1,8.2018-8.2,8.2018h-115.62c-9.84,0-11.48-8.2-11.48-12.3s1.64-12.3,11.48-12.3Z" fill="#b13136" fill-rule="evenodd"/>
    <rect id="uuid-77a8fc04-6c62-46f8-8100-2d318efb13ff" data-name="rect12-6" x="257.02" y="490.31" width="19.68" height="129.56" fill="#3e4c5b"/>
  </g>
</svg>