<?xml version="1.0" encoding="UTF-8"?>
<svg id="uuid-cf361ff2-5398-4fa6-bff2-6fc7baeb2ffe" data-name="Ebene_1" xmlns="http://www.w3.org/2000/svg" viewBox="0 0 824 824">
  <rect width="824" height="824" fill="none"/>
  <g id="uuid-43554419-c7ab-4f7e-96a0-69fe9f5fc642" data-name="marlin">
    <path d="M191.9667,220.6667h507.0333v315.7c0,36.96-30.0067,66.9667-66.9667,66.9667H191.9667c-36.96,0-66.9667-30.0067-66.9667-66.9667v-248.7333c0-36.96,30.0067-66.9667,66.9667-66.9667Z" fill="#fff" stroke="#1e1e1c" stroke-miterlimit="10" stroke-width="20"/>
    <path d="M518.6348,376.4745c0-46.1796-34.3382-84.0578-85.2437-84.0578-24.8598,0-47.3746,11.8594-61.5789,30.7715-14.1953-18.957-36.7102-30.7715-62.7648-30.7715-49.7195,0-84.0578,37.914-84.0578,84.0578v146.8226c-.1105,4.4643,3.4186,8.1731,7.8829,8.2836.133.0036.2668.0036.4007,0h35.5242v-155.1062c0-22.4879,16.5762-40.2499,40.2499-40.2499,24.8597,0,40.2499,17.7621,40.2499,40.2499v155.1062h45.0117v-155.1062c0-22.4879,15.3813-40.2499,39.082-40.2499,24.8598,0,40.2499,17.7621,40.2499,40.2499v155.1062h45.0117s-.018-155.1062-.0179-155.1062h.0002Z" fill="#010202"/>
    <polygon points="469.4 220.6667 699 450.2667 699 220.6667 469.4 220.6667" fill="#1e1e1c"/>
  </g>
</svg>