<?xml version="1.0" encoding="UTF-8"?>
<svg id="uuid-6799236f-706c-4581-9fd6-64de092d0c1f" data-name="Ebene_1" xmlns="http://www.w3.org/2000/svg" viewBox="0 0 824 824">
  <rect width="824" height="824" fill="none"/>
  <g id="uuid-f79cfdd3-4951-41d8-a358-884caa7003f1" data-name="marlin2">
    <path d="M191.9667,220.6667h507.0333v315.7c0,36.96-30.0067,66.9667-66.9667,66.9667H191.9667c-36.96,0-66.9667-30.0067-66.9667-66.9667v-248.7333c0-36.96,30.0067-66.9667,66.9667-66.9667Z" fill="#fff" stroke="#1e1e1c" stroke-miterlimit="10" stroke-width="20"/>
    <path d="M518.6348,376.4745c0-46.1796-34.3382-84.0578-85.2437-84.0578-24.8598,0-47.3746,11.8594-61.5789,30.7715-14.1953-18.957-36.7102-30.7715-62.7648-30.7715-49.7195,0-84.0578,37.914-84.0578,84.0578v146.8226c-.1105,4.4643,3.4186,8.1731,7.8829,8.2836.133.0036.2668.0036.4007,0h35.5242v-155.1062c0-22.4879,16.5762-40.2499,40.2499-40.2499,24.8597,0,40.2499,17.7621,40.2499,40.2499v155.1062h45.0117v-155.1062c0-22.4879,15.3813-40.2499,39.082-40.2499,24.8598,0,40.2499,17.7621,40.2499,40.2499v155.1062h45.0117s-.018-155.1062-.0179-155.1062h.0002Z" fill="#010202"/>
    <polygon points="469.4 220.6667 699 450.2667 699 220.6667 469.4 220.6667" fill="#1e1e1c"/>
    <path d="M642.2385,313.2447h33.8563c3.3726,0,5.9444.6923,7.7182,2.0755,1.7722,1.3839,2.6593,3.2648,2.6593,5.6427,0,2.1193-.7037,3.9134-2.1079,5.3833-1.4058,1.4707-3.5348,2.2052-6.3886,2.2052h-47.7361c-3.2429,0-5.7724-.8967-7.5885-2.6917-1.8161-1.7941-2.7241-3.902-2.7241-6.3238,0-1.5566.5838-3.6207,1.7512-6.194,1.1674-2.5725,2.4419-4.5936,3.8267-6.0643,5.7498-5.967,10.9384-11.0795,15.5661-15.3391,4.626-4.2588,7.9338-7.0583,9.9234-8.3992,3.5445-2.5076,6.4956-5.0265,8.8532-7.556,2.356-2.5295,4.151-5.1238,5.3832-7.7831s1.8485-5.2641,1.8485-7.8155c0-2.7671-.6599-5.2422-1.9782-7.4263-1.3199-2.1833-3.1132-3.8801-5.3832-5.0914-2.2701-1.2105-4.746-1.816-7.4263-1.816-5.6654,0-10.118,2.4866-13.3609,7.4587-.4329.6486-1.1578,2.4217-2.1728,5.3184-1.0166,2.8976-2.163,5.1238-3.4375,6.6805-1.2761,1.5566-3.1456,2.3349-5.6103,2.3349-2.163,0-3.9564-.7135-5.3832-2.1404s-2.1404-3.3726-2.1404-5.8373c0-2.9835.6697-6.0967,2.0106-9.3396,1.3394-3.2429,3.3402-6.1826,5.9994-8.8208,2.6593-2.6373,6.0319-4.7672,10.118-6.3886s8.8743-2.4322,14.3662-2.4322c6.6156,0,12.2583,1.0377,16.9281,3.1132,3.0257,1.3839,5.6849,3.2867,7.9776,5.7076,2.2911,2.4217,4.0747,5.2211,5.3508,8.3992,1.2745,3.178,1.9133,6.4753,1.9133,9.891,0,5.3622-1.3295,10.2371-3.9888,14.6256-2.6593,4.3893-5.3735,7.8269-8.1398,10.3126-2.7678,2.4866-7.4053,6.3886-13.9122,11.707-6.5086,5.3184-10.9725,9.4483-13.3933,12.3881-1.0377,1.1674-2.0981,2.5732-3.1781,4.2158h0Z" fill="#fff"/>
  </g>
</svg>